<svg width="100" height="100" viewBox="0 0 100 100" fill="none" xmlns="http://www.w3.org/2000/svg">
<g clip-path="url(#clip0_8_2)">
<path d="M95.3655 4.63282C92.3769 1.6654 88.3355 0 84.1232 0C79.9109 0 75.8695 1.6654 72.8808 4.63282L4.18405 73.3053C3.53969 73.9704 3.11587 74.8177 2.97023 75.7321L0.0512655 95.002C-0.0445607 95.6193 -0.00573056 96.2501 0.165094 96.851C0.335919 97.4519 0.634699 98.0088 1.04096 98.4836C1.44722 98.9583 1.95135 99.3396 2.5188 99.6013C3.08625 99.8631 3.70361 99.9991 4.32856 100H4.99327L24.2411 97.111C25.1558 96.9654 26.0034 96.5417 26.6687 95.8976L95.3655 27.1095C98.334 24.122 100 20.082 100 15.8712C100 11.6603 98.334 7.6204 95.3655 4.63282ZM21.5533 88.6461L9.50177 90.4662L11.3225 78.4189L67.7365 22.0537L77.9385 32.252L21.5533 88.6461ZM89.2386 20.9848L82.0423 28.1785L71.8115 17.9513L79.0078 10.7576C80.3645 9.40137 82.2045 8.63946 84.1232 8.63946C86.0418 8.63946 87.8819 9.40137 89.2386 10.7576C90.5953 12.1138 91.3575 13.9532 91.3575 15.8712C91.3575 17.7892 90.5953 19.6286 89.2386 20.9848Z" fill="#34A853"/>
</g>
<defs>
<clipPath id="clip0_8_2">
<rect width="100" height="100" fill="white"/>
</clipPath>
</defs>
</svg>
